<svg xmlns="http://www.w3.org/2000/svg" xmlns:xlink="http://www.w3.org/1999/xlink" aria-hidden="true" role="img" class="iconify iconify--teenyicons" width="32" height="32" preserveAspectRatio="xMidYMid meet" viewBox="0 0 15 15"><g fill="none"><path fill-rule="evenodd" clip-rule="evenodd" d="M7 4.5A4.5 4.5 0 0 1 11.5 0H15v3.5A4.5 4.5 0 0 1 10.5 8H8v7H7v-4H4.5A4.5 4.5 0 0 1 0 6.5V3h3.5c1.414 0 2.675.652 3.5 1.671V4.5zm1.146 1.646l3-3l.708.708l-3 3l-.708-.708zm-2 3.708l-3-3l.708-.708l3 3l-.708.708z" fill="currentColor"></path></g></svg>